<?xml version="1.0" standalone="no"?>
<!DOCTYPE svg PUBLIC "-//W3C//DTD SVG 20010904//EN"
 "http://www.w3.org/TR/2001/REC-SVG-20010904/DTD/svg10.dtd">
<svg version="1.0" xmlns="http://www.w3.org/2000/svg"
 width="3840.000000pt" height="3297.000000pt" viewBox="0 0 3840.000000 3297.000000"
 preserveAspectRatio="xMidYMid meet">

<g transform="translate(0.000000,3297.000000) scale(0.100000,-0.100000)"
fill="#000000" stroke="none">
<path d="M16610 32960 c-1275 -73 -2530 -710 -3640 -1846 -854 -875 -1507
-1930 -1869 -3023 -332 -1000 -430 -2047 -286 -3050 236 -1637 1090 -3108
2440 -4202 591 -479 1554 -1075 2470 -1529 2424 -1199 4741 -1571 6148 -986
418 173 749 439 984 791 343 513 540 1208 615 2175 17 216 17 1024 0 1270
-102 1498 -427 3023 -989 4650 -333 963 -795 2041 -1140 2658 -628 1124 -1432
1985 -2341 2506 -748 429 -1579 632 -2392 586z"/>
<path d="M4410 18974 c-19 -2 -91 -9 -160 -14 -1323 -114 -2531 -795 -3308
-1867 -791 -1089 -1104 -2514 -862 -3918 114 -662 373 -1312 739 -1860 275
-410 648 -806 1036 -1097 928 -696 2101 -1015 3325 -902 1311 120 2507 748
3365 1767 l57 67 -81 103 c-274 350 -568 508 -1019 548 -215 19 -400 -9 -592
-88 -104 -42 -156 -71 -430 -236 -412 -248 -682 -359 -1040 -431 -231 -46
-391 -60 -700 -60 -311 -1 -413 9 -650 64 -762 174 -1428 664 -1848 1360 -692
1146 -600 2674 225 3743 433 560 1051 952 1713 1087 199 41 357 53 615 47 469
-10 819 -94 1206 -288 127 -63 187 -97 449 -257 412 -252 577 -314 831 -313
329 0 635 112 923 338 96 76 358 340 354 357 -6 26 -222 270 -373 421 -799
799 -1817 1284 -2960 1411 -131 15 -728 28 -815 18z"/>
<path d="M10310 18689 c-353 -45 -635 -214 -785 -470 -46 -80 -81 -164 -107
-264 -19 -73 -22 -113 -25 -452 l-5 -373 855 0 854 0 6 -612 c4 -337 10 -1538
13 -2668 9 -2875 -1 -3196 -112 -3649 -156 -636 -498 -1137 -994 -1456 -41
-27 -165 -94 -275 -150 -227 -115 -353 -190 -461 -277 -269 -213 -391 -440
-438 -808 -35 -281 -32 -408 11 -424 17 -7 599 138 858 213 407 118 834 286
1170 460 844 437 1402 992 1755 1745 173 369 316 908 384 1451 52 412 50 241
53 3316 l4 2856 147 6 c217 9 370 46 549 132 294 143 492 404 538 715 11 67
15 187 15 408 l0 312 -1972 -1 c-1085 -1 -2002 -5 -2038 -10z"/>
<path d="M21485 15404 c-220 -26 -390 -65 -613 -140 -937 -316 -2040 -1177
-3122 -2439 -1163 -1357 -2248 -3121 -3050 -4960 -177 -407 -302 -740 -406
-1085 -370 -1222 -419 -2380 -143 -3385 126 -460 325 -898 580 -1279 260 -386
579 -722 969 -1020 398 -304 920 -574 1455 -752 1114 -370 2450 -440 3768
-198 1663 305 3105 1118 4104 2314 827 989 1328 2195 1462 3520 85 837 23
1660 -215 2840 -285 1414 -753 2761 -1334 3835 -670 1241 -1446 2101 -2255
2500 -93 46 -215 101 -270 121 -136 50 -342 101 -481 119 -102 13 -364 18
-449 9z"/>
</g>
</svg>
